<mxfile host="Electron" modified="2024-04-24T20:53:28.936Z" agent="Mozilla/5.0 (Windows NT 10.0; Win64; x64) AppleWebKit/537.36 (KHTML, like Gecko) draw.io/24.2.5 Chrome/120.0.6099.109 Electron/28.1.0 Safari/537.36" etag="8_d_6YQmhi9Izp1Lacq5" version="24.2.5" type="device">
  <diagram name="Страница — 1" id="5iC8iVsNvROUh3ubezbh">
    <mxGraphModel dx="1120" dy="532" grid="1" gridSize="10" guides="1" tooltips="1" connect="1" arrows="1" fold="1" page="1" pageScale="1" pageWidth="827" pageHeight="1169" math="0" shadow="0">
      <root>
        <mxCell id="0" />
        <mxCell id="1" parent="0" />
        <mxCell id="ERZ-9g1pCxZReyl2TRZq-3" value="" style="edgeStyle=orthogonalEdgeStyle;rounded=0;orthogonalLoop=1;jettySize=auto;html=1;" edge="1" parent="1" source="ERZ-9g1pCxZReyl2TRZq-1" target="ERZ-9g1pCxZReyl2TRZq-2">
          <mxGeometry relative="1" as="geometry" />
        </mxCell>
        <mxCell id="ERZ-9g1pCxZReyl2TRZq-1" value="string [] strings" style="rounded=0;whiteSpace=wrap;html=1;" vertex="1" parent="1">
          <mxGeometry x="354" y="40" width="120" height="60" as="geometry" />
        </mxCell>
        <mxCell id="ERZ-9g1pCxZReyl2TRZq-5" value="" style="edgeStyle=orthogonalEdgeStyle;rounded=0;orthogonalLoop=1;jettySize=auto;html=1;" edge="1" parent="1" source="ERZ-9g1pCxZReyl2TRZq-2" target="ERZ-9g1pCxZReyl2TRZq-4">
          <mxGeometry relative="1" as="geometry" />
        </mxCell>
        <mxCell id="ERZ-9g1pCxZReyl2TRZq-2" value="string [] new_arr&lt;div&gt;i = 0&lt;/div&gt;" style="whiteSpace=wrap;html=1;rounded=0;" vertex="1" parent="1">
          <mxGeometry x="354" y="130" width="120" height="60" as="geometry" />
        </mxCell>
        <mxCell id="ERZ-9g1pCxZReyl2TRZq-7" value="" style="edgeStyle=orthogonalEdgeStyle;rounded=0;orthogonalLoop=1;jettySize=auto;html=1;" edge="1" parent="1" source="ERZ-9g1pCxZReyl2TRZq-4" target="ERZ-9g1pCxZReyl2TRZq-6">
          <mxGeometry relative="1" as="geometry" />
        </mxCell>
        <mxCell id="ERZ-9g1pCxZReyl2TRZq-19" value="no" style="edgeLabel;html=1;align=center;verticalAlign=middle;resizable=0;points=[];" vertex="1" connectable="0" parent="ERZ-9g1pCxZReyl2TRZq-7">
          <mxGeometry x="-0.2157" relative="1" as="geometry">
            <mxPoint as="offset" />
          </mxGeometry>
        </mxCell>
        <mxCell id="ERZ-9g1pCxZReyl2TRZq-9" value="" style="edgeStyle=orthogonalEdgeStyle;rounded=0;orthogonalLoop=1;jettySize=auto;html=1;" edge="1" parent="1" source="ERZ-9g1pCxZReyl2TRZq-4" target="ERZ-9g1pCxZReyl2TRZq-8">
          <mxGeometry relative="1" as="geometry" />
        </mxCell>
        <mxCell id="ERZ-9g1pCxZReyl2TRZq-16" value="yes" style="edgeLabel;html=1;align=center;verticalAlign=middle;resizable=0;points=[];" vertex="1" connectable="0" parent="ERZ-9g1pCxZReyl2TRZq-9">
          <mxGeometry x="-0.45" relative="1" as="geometry">
            <mxPoint as="offset" />
          </mxGeometry>
        </mxCell>
        <mxCell id="ERZ-9g1pCxZReyl2TRZq-4" value="i &amp;lt; strings.length" style="rhombus;whiteSpace=wrap;html=1;rounded=0;" vertex="1" parent="1">
          <mxGeometry x="319" y="220" width="190" height="80" as="geometry" />
        </mxCell>
        <mxCell id="ERZ-9g1pCxZReyl2TRZq-6" value="return new_arr" style="rounded=0;whiteSpace=wrap;html=1;" vertex="1" parent="1">
          <mxGeometry x="560" y="230" width="160" height="60" as="geometry" />
        </mxCell>
        <mxCell id="ERZ-9g1pCxZReyl2TRZq-11" value="" style="edgeStyle=orthogonalEdgeStyle;rounded=0;orthogonalLoop=1;jettySize=auto;html=1;" edge="1" parent="1" source="ERZ-9g1pCxZReyl2TRZq-8" target="ERZ-9g1pCxZReyl2TRZq-10">
          <mxGeometry relative="1" as="geometry" />
        </mxCell>
        <mxCell id="ERZ-9g1pCxZReyl2TRZq-18" value="no" style="edgeLabel;html=1;align=center;verticalAlign=middle;resizable=0;points=[];" vertex="1" connectable="0" parent="ERZ-9g1pCxZReyl2TRZq-11">
          <mxGeometry x="-0.2" relative="1" as="geometry">
            <mxPoint as="offset" />
          </mxGeometry>
        </mxCell>
        <mxCell id="ERZ-9g1pCxZReyl2TRZq-13" value="" style="edgeStyle=orthogonalEdgeStyle;rounded=0;orthogonalLoop=1;jettySize=auto;html=1;" edge="1" parent="1" source="ERZ-9g1pCxZReyl2TRZq-8" target="ERZ-9g1pCxZReyl2TRZq-12">
          <mxGeometry relative="1" as="geometry" />
        </mxCell>
        <mxCell id="ERZ-9g1pCxZReyl2TRZq-17" value="yes" style="edgeLabel;html=1;align=center;verticalAlign=middle;resizable=0;points=[];" vertex="1" connectable="0" parent="ERZ-9g1pCxZReyl2TRZq-13">
          <mxGeometry x="-0.1373" y="1" relative="1" as="geometry">
            <mxPoint as="offset" />
          </mxGeometry>
        </mxCell>
        <mxCell id="ERZ-9g1pCxZReyl2TRZq-8" value="strings[i].length &amp;lt;= 3" style="rhombus;whiteSpace=wrap;html=1;rounded=0;" vertex="1" parent="1">
          <mxGeometry x="319" y="340" width="190" height="80" as="geometry" />
        </mxCell>
        <mxCell id="ERZ-9g1pCxZReyl2TRZq-15" style="edgeStyle=orthogonalEdgeStyle;rounded=0;orthogonalLoop=1;jettySize=auto;html=1;entryX=0;entryY=0.5;entryDx=0;entryDy=0;" edge="1" parent="1" source="ERZ-9g1pCxZReyl2TRZq-10" target="ERZ-9g1pCxZReyl2TRZq-4">
          <mxGeometry relative="1" as="geometry">
            <Array as="points">
              <mxPoint x="280" y="490" />
              <mxPoint x="280" y="260" />
            </Array>
          </mxGeometry>
        </mxCell>
        <mxCell id="ERZ-9g1pCxZReyl2TRZq-10" value="i++" style="whiteSpace=wrap;html=1;rounded=0;" vertex="1" parent="1">
          <mxGeometry x="354" y="460" width="120" height="60" as="geometry" />
        </mxCell>
        <mxCell id="ERZ-9g1pCxZReyl2TRZq-14" style="edgeStyle=orthogonalEdgeStyle;rounded=0;orthogonalLoop=1;jettySize=auto;html=1;entryX=1;entryY=0.5;entryDx=0;entryDy=0;" edge="1" parent="1" source="ERZ-9g1pCxZReyl2TRZq-12" target="ERZ-9g1pCxZReyl2TRZq-10">
          <mxGeometry relative="1" as="geometry">
            <Array as="points">
              <mxPoint x="640" y="490" />
            </Array>
          </mxGeometry>
        </mxCell>
        <mxCell id="ERZ-9g1pCxZReyl2TRZq-12" value="new_arr[i] = strings[i]" style="whiteSpace=wrap;html=1;rounded=0;" vertex="1" parent="1">
          <mxGeometry x="560" y="350" width="160" height="60" as="geometry" />
        </mxCell>
      </root>
    </mxGraphModel>
  </diagram>
</mxfile>
